<?xml version="1.0" encoding="UTF-8" standalone="no"?>
<svg
   xmlns:dc="http://purl.org/dc/elements/1.1/"
   xmlns:cc="http://creativecommons.org/ns#"
   xmlns:rdf="http://www.w3.org/1999/02/22-rdf-syntax-ns#"
   xmlns:svg="http://www.w3.org/2000/svg"
   xmlns="http://www.w3.org/2000/svg"
   xmlns:sodipodi="http://sodipodi.sourceforge.net/DTD/sodipodi-0.dtd"
   xmlns:inkscape="http://www.inkscape.org/namespaces/inkscape"
   width="481.88232"
   height="481.88235"
   viewBox="0 0 127.49803 127.49804"
   version="1.1"
   id="svg8"
   inkscape:version="1.0.2-2 (e86c870879, 2021-01-15)"
   sodipodi:docname="safari-pinned-tab.svg">
  <defs
     id="defs2" />
  <sodipodi:namedview
     id="base"
     pagecolor="#ffffff"
     bordercolor="#666666"
     borderopacity="1.0"
     inkscape:pageopacity="0.0"
     inkscape:pageshadow="2"
     inkscape:zoom="0.35"
     inkscape:cx="460.7279"
     inkscape:cy="59.222083"
     inkscape:document-units="mm"
     inkscape:current-layer="layer1"
     inkscape:document-rotation="0"
     showgrid="false"
     fit-margin-top="0"
     fit-margin-left="0"
     fit-margin-right="0"
     fit-margin-bottom="0"
     units="px"
     inkscape:window-width="1267"
     inkscape:window-height="967"
     inkscape:window-x="312"
     inkscape:window-y="312"
     inkscape:window-maximized="0" />
  <metadata
     id="metadata5">
    <rdf:RDF>
      <cc:Work
         rdf:about="">
        <dc:format>image/svg+xml</dc:format>
        <dc:type
           rdf:resource="http://purl.org/dc/dcmitype/StillImage" />
        <dc:title></dc:title>
      </cc:Work>
    </rdf:RDF>
  </metadata>
  <g
     inkscape:label="Layer 1"
     inkscape:groupmode="layer"
     id="layer1"
     transform="translate(-48.131939,-161.26688)">
    <g
       id="g847"
       transform="translate(4.3652344e-6,127.49804)">
      <path
         style="fill:#fefefe;stroke-width:1"
         d="m 114.5027,146.57249 c -2.92252,-0.5224 -5.64606,-2.02698 -7.71568,-4.26242 -0.77271,-0.83462 -1.58043,-1.78534 -1.79492,-2.1127 -0.2145,-0.32736 -0.54777,-0.5952 -0.7406,-0.5952 -0.19284,0 -1.2165,0.49752 -2.27479,1.10561 -3.203084,1.84043 -6.081773,2.37925 -9.501094,1.77835 -3.010166,-0.529 -4.974744,-1.57264 -7.263523,-3.8586 -2.1679,-2.16523 -3.167858,-4.00516 -3.837748,-7.06148 -0.4674,-2.13248 -0.528004,-2.19436 -2.612998,-2.66804 -4.567682,-1.03772 -8.632117,-4.82307 -10.019561,-9.33158 -1.924425,-6.25342 1.132811,-13.3519 7.024903,-16.31084 4.049288,-2.03352 9.619304,-1.72361 13.473528,0.74964 1.473269,0.9454 2.739865,1.14833 4.503305,0.72153 1.782542,-0.43144 4.72119,-0.3829 6.593968,0.1089 0.84153,0.22099 1.70084,0.4018 1.90957,0.4018 0.20872,0 0.95673,-0.49271 1.66223,-1.09492 2.50379,-2.13719 5.60268,-3.23462 9.09225,-3.21989 3.28745,0.0139 5.58683,0.86351 8.7209,3.2224 0.98025,0.73779 1.97453,1.34143 2.20952,1.34143 0.23499,0 1.17712,-0.45226 2.09362,-1.00502 2.37515,-1.43253 4.43103,-2.01647 7.15908,-2.03344 2.36226,-0.0147 4.3788,0.42313 6.17915,1.3416 0.8912,0.45466 1.14505,0.47402 2.88305,0.21989 4.63428,-0.67763 9.49276,1.16599 12.4559,4.72656 4.56288,5.48287 4.24497,13.43959 -0.73579,18.41512 -2.58579,2.58308 -5.48937,3.86029 -9.28675,4.08501 l -1.93897,0.11475 -1.68136,1.69767 c -2.5566,2.58141 -4.85341,3.65955 -8.85225,4.15532 l -2.27111,0.28156 -0.99691,1.86591 c -1.74258,3.2616 -4.83111,5.79967 -8.29545,6.81698 -1.69782,0.49857 -4.55957,0.68687 -6.14147,0.4041 z"
         id="path859" />
      <path
         style="fill:#fefefe;stroke-width:1"
         d="m 120.89433,152.55962 c 2.5708,-0.5685 5.38678,-1.81983 7.51843,-3.34094 1.64143,-1.1713 4.29813,-3.86472 5.02389,-5.09333 0.36341,-0.61521 0.68947,-0.78782 1.9535,-1.03413 2.94556,-0.57397 7.04716,-2.6517 9.11237,-4.61602 0.68878,-0.65513 1.21105,-0.88727 2.4902,-1.10689 10.06344,-1.72776 17.17324,-9.8504 17.18061,-19.62811 0.004,-5.85229 -2.11927,-10.73308 -6.44286,-14.80742 -0.98178,-0.92518 -2.39867,-2.02845 -3.14865,-2.45172 l -1.36361,-0.769569 -0.003,-23.197308 c -0.002,-12.758519 -0.071,-23.449439 -0.15355,-23.757601 l -0.15017,-0.560294 h -8.03505 -8.03505 l -0.15015,0.560294 c -0.0826,0.308162 -0.15168,2.661397 -0.15355,5.229412 l -0.003,4.669118 h -2.36064 -2.36063 l -0.0673,-5.167157 -0.0673,-5.167157 -8.00094,-0.06567 -8.00095,-0.06567 -0.15104,0.563704 c -0.0831,0.310037 -0.15258,2.664807 -0.15445,5.232822 l -0.003,4.669118 h -2.36569 -2.36568 l -0.003,-4.669118 c -0.002,-2.568015 -0.0714,-4.922785 -0.15445,-5.232822 l -0.15103,-0.563704 -8.00095,0.06567 -8.000947,0.06567 -0.06731,5.167157 -0.06731,5.167157 H 91.829824 89.46919 l -0.0034,-4.669118 c -0.002,-2.568015 -0.07097,-4.92125 -0.153556,-5.229412 l -0.150139,-0.560294 h -8.035051 -8.035051 l -0.150152,0.560294 c -0.08258,0.308162 -0.151683,10.545617 -0.153553,22.749899 l -0.0034,22.189607 -1.500979,0.926457 c -6.967705,4.300715 -10.662081,12.848225 -9.008008,20.841415 1.342564,6.48785 5.739484,11.90366 11.713104,14.42737 l 1.577644,0.66652 0.796362,1.96187 c 2.439035,6.00865 7.487405,10.36504 13.85325,11.95439 2.67025,0.66668 7.178356,0.60614 9.711765,-0.13042 1.027204,-0.29864 2.120364,-0.60789 2.429244,-0.68722 0.4101,-0.10532 0.91392,0.12526 1.86764,0.85473 5.1549,3.94284 10.87009,5.33086 16.66943,4.04842 z"
         id="path857" />
      <path
         style="fill:#cacaca;stroke-width:1"
         d="m 113.12605,152.66254 c -3.48998,-0.7484 -5.95542,-1.89823 -8.90115,-4.15134 -0.95372,-0.72947 -1.45754,-0.96005 -1.86764,-0.85473 -0.30888,0.0793 -1.40204,0.38858 -2.429246,0.68722 -2.533409,0.73656 -7.041515,0.7971 -9.711765,0.13042 -6.365845,-1.58935 -11.414215,-5.94574 -13.85325,-11.95439 l -0.796362,-1.96187 -1.577644,-0.66652 C 63.706705,129.54731 59.052356,117.48102 63.720077,107.2694 c 1.607113,-3.5159 4.372137,-6.67684 7.56382,-8.646855 l 1.500979,-0.926457 0.0034,-22.189607 c 0.0019,-12.204282 0.07097,-22.441737 0.153553,-22.749899 l 0.150152,-0.560294 h 8.035051 8.035051 l 0.150152,0.560294 c 0.08258,0.308162 0.151685,2.661397 0.153555,5.229412 l 0.0034,4.669118 h 2.360634 2.360634 l 0.06731,-5.167157 0.06731,-5.167157 8.000952,-0.06567 8.00095,-0.06567 0.15104,0.563704 c 0.0831,0.310037 0.15258,2.664807 0.15445,5.232822 l 0.003,4.669118 h 2.36568 2.36569 l 0.003,-4.669118 c 0.002,-2.568015 0.0714,-4.922785 0.15444,-5.232822 l 0.15105,-0.563704 8.00094,0.06567 8.00095,0.06567 0.0673,5.167157 0.0673,5.167157 h 2.36063 2.36064 l 0.003,-4.669118 c 0.002,-2.568015 0.071,-4.92125 0.15356,-5.229412 l 0.15016,-0.560294 h 8.03505 8.03505 l 0.15016,0.560294 c 0.0826,0.308162 0.15168,10.999082 0.15355,23.757601 l 0.003,23.197308 1.3636,0.769569 c 3.04933,1.72094 6.62292,5.85071 8.06106,9.31566 5.03124,12.12197 -2.45206,25.30565 -15.65015,27.57159 -1.27916,0.21962 -1.80142,0.45176 -2.4902,1.10689 -2.06521,1.96432 -6.16681,4.04205 -9.11237,4.61602 -1.26403,0.24631 -1.59009,0.41892 -1.9535,1.03413 -0.72576,1.22861 -3.38246,3.92203 -5.02389,5.09333 -4.43937,3.16788 -10.3569,4.50101 -15.2867,3.44386 z m 9.08922,-0.85926 c 4.50643,-1.43315 7.87777,-3.83855 10.5566,-7.53199 0.58496,-0.80651 1.22975,-1.43186 1.47639,-1.43186 0.90891,0 3.47167,-0.79366 5.21016,-1.61353 1.96723,-0.92775 3.662,-2.02516 5.03437,-3.25991 0.58554,-0.52682 1.25737,-0.85084 2.00189,-0.96551 7.82886,-1.20575 13.74591,-6.0078 16.2082,-13.15396 2.97822,-8.64352 -0.5727,-18.40093 -8.35216,-22.95053 l -1.63055,-0.953581 V 76.492683 c 0,-17.906652 -0.0706,-23.520365 -0.29882,-23.748552 -0.42668,-0.426676 -14.66392,-0.426676 -15.09059,0 -0.21282,0.212823 -0.29882,1.756017 -0.29882,5.362077 v 5.063254 l -2.80148,-0.07041 -2.80147,-0.07041 -0.12451,-5.229412 -0.12451,-5.229411 -7.31596,-0.06607 c -5.12679,-0.0463 -7.41661,0.01745 -7.65229,0.213046 -0.25768,0.213857 -0.35205,1.451933 -0.40363,5.29548 l -0.0673,5.016365 -2.80147,0.07041 -2.80147,0.07041 v -5.063254 c 0,-3.60606 -0.086,-5.149254 -0.29883,-5.362077 -0.42667,-0.426676 -14.663909,-0.426676 -15.090584,0 -0.212792,0.212791 -0.298824,1.754205 -0.298824,5.353922 v 5.055098 h -2.739215 -2.739216 v -5.055098 c 0,-3.599717 -0.08603,-5.141131 -0.298824,-5.353922 -0.426675,-0.426676 -14.663913,-0.426676 -15.090588,0 -0.228005,0.228005 -0.298823,5.626422 -0.298823,22.7789 v 22.480076 l -0.809314,0.41131 c -1.653238,0.84021 -4.284098,2.988755 -5.595708,4.569835 -1.730138,2.08561 -3.393502,5.49788 -4.072375,8.3542 -0.436186,1.83522 -0.51007,2.73734 -0.407898,4.98039 0.148382,3.25748 0.587103,5.02795 1.921555,7.75447 2.046386,4.18113 4.966289,7.04614 9.356175,9.18029 l 2.260084,1.09873 0.68335,1.74175 c 1.297041,3.30594 3.519065,6.28555 6.211647,8.32948 5.39485,4.09521 11.838689,5.17576 18.404568,3.08622 l 1.68051,-0.53481 0.68517,0.54683 c 2.97726,2.37614 5.61149,3.74543 8.73035,4.53808 2.63568,0.66985 7.35645,0.5473 9.88424,-0.2566 z m -7.09706,-4.75927 c -3.55341,-0.37204 -7.02682,-2.30743 -9.43801,-5.25889 -0.75707,-0.9267 -1.47567,-1.68491 -1.5969,-1.68491 -0.12123,0 -0.85989,0.39471 -1.64147,0.87712 -2.442056,1.50733 -3.834945,1.92269 -6.871659,2.04914 -4.611637,0.19204 -7.601688,-0.93758 -10.708444,-4.04556 -1.997013,-1.9978 -3.155018,-4.07221 -3.754015,-6.72482 -0.216495,-0.95872 -0.479786,-1.91122 -0.585094,-2.11666 -0.105306,-0.20545 -0.951733,-0.56041 -1.88095,-0.78882 -2.64671,-0.65057 -4.761798,-1.85037 -6.729648,-3.81745 -2.849912,-2.84878 -4.182751,-6.03426 -4.167951,-9.96138 0.01507,-3.99769 1.344941,-7.19645 4.144318,-9.96836 3.104188,-3.07372 6.130979,-4.22683 10.608254,-4.04141 2.985643,0.12365 4.329998,0.5159 6.779031,1.97794 1.54757,0.92388 1.773468,0.98833 2.988235,0.85256 4.031488,-0.45059 6.278714,-0.45678 8.180043,-0.0225 l 1.92238,0.43907 1.39641,-1.13751 c 2.65314,-2.16122 5.54459,-3.16544 9.11429,-3.16544 3.54935,0 5.93201,0.84758 9.07928,3.22973 0.91021,0.68894 1.80352,1.25263 1.98511,1.25263 0.1816,0 0.98134,-0.39212 1.77721,-0.87136 2.8449,-1.71311 3.84699,-1.97542 7.57801,-1.9836 3.19005,-0.007 3.44444,0.0299 4.98039,0.72157 1.54907,0.69762 1.7524,0.72603 4.73138,0.66104 5.20465,-0.11353 8.31951,1.06941 11.42535,4.33904 5.41925,5.70506 5.33018,14.01848 -0.2095,19.55345 -2.8543,2.85187 -5.92064,4.22495 -9.43511,4.22495 h -1.60089 l -1.89532,1.8054 c -2.83545,2.70091 -6.02916,4.17107 -9.06107,4.17107 -1.64654,0 -2.05424,0.278 -2.91849,1.99007 -0.97981,1.94101 -3.29249,4.37984 -5.26364,5.55077 -2.73475,1.62453 -5.63192,2.23863 -8.93153,1.89316 z m 5.52596,-0.87562 c 3.46434,-1.01731 6.55287,-3.55538 8.29545,-6.81698 l 0.99691,-1.86591 2.27111,-0.28156 c 3.99884,-0.49577 6.29565,-1.57391 8.85225,-4.15532 l 1.68136,-1.69767 1.93897,-0.11475 c 6.42998,-0.38051 11.45282,-4.50242 12.88359,-10.57269 2.20048,-9.33585 -5.8088,-18.04428 -15.31695,-16.654 -1.738,0.25413 -1.99185,0.23477 -2.88305,-0.21989 -1.80035,-0.91847 -3.81689,-1.3563 -6.17915,-1.3416 -2.72805,0.017 -4.78393,0.60091 -7.15908,2.03344 -0.9165,0.55276 -1.85863,1.00502 -2.09362,1.00502 -0.23499,0 -1.22927,-0.60364 -2.20952,-1.34143 -3.13407,-2.35889 -5.43345,-3.20852 -8.7209,-3.2224 -3.48957,-0.0147 -6.58846,1.0827 -9.09225,3.21989 -0.7055,0.60221 -1.45351,1.09492 -1.66223,1.09492 -0.20873,0 -1.06804,-0.18081 -1.90957,-0.4018 -1.872778,-0.4918 -4.811426,-0.54034 -6.593968,-0.1089 -1.76344,0.4268 -3.030036,0.22387 -4.503305,-0.72153 -3.854224,-2.47325 -9.42424,-2.78316 -13.473528,-0.74964 -5.892092,2.95894 -8.949328,10.05742 -7.024903,16.31084 1.387444,4.50851 5.451879,8.29386 10.019561,9.33158 2.084994,0.47368 2.145598,0.53556 2.612998,2.66804 0.66989,3.05632 1.669848,4.89625 3.837748,7.06148 2.288779,2.28596 4.253357,3.3296 7.263523,3.8586 3.419321,0.6009 6.29801,0.0621 9.501094,-1.77835 1.05829,-0.60809 2.08195,-1.10561 2.27479,-1.10561 0.19283,0 0.5261,0.26784 0.7406,0.5952 0.21449,0.32736 1.02221,1.27808 1.79492,2.1127 3.57123,3.85735 8.85268,5.32789 13.85715,3.85832 z M 90.890988,98.085288 c -2.5592,-1.350458 -4.837993,-1.879837 -8.767876,-2.036833 L 78.387818,95.89923 78.31922,77.347269 c -0.03773,-10.203579 -0.0076,-18.804094 0.067,-19.112255 0.129906,-0.536782 0.245122,-0.560295 2.745558,-0.560295 h 2.609962 l 0.0038,4.918138 c 0.002,2.704975 0.09377,5.059859 0.203726,5.233075 0.155632,0.245179 1.906075,0.300337 7.90256,0.249019 l 7.702649,-0.06592 0.06733,-5.175529 0.06733,-5.175531 2.671885,0.07063 2.67189,0.07063 0.0673,5.170698 0.0673,5.170698 7.7768,-0.0658 7.7768,-0.0658 0.12451,-5.104902 0.12451,-5.104902 h 2.61471 2.6147 l 0.12451,5.104902 0.12451,5.104902 7.78186,0.0658 7.78187,0.0658 v -4.839064 c 0,-2.661484 0.068,-5.016315 0.15115,-5.232959 0.12442,-0.324219 0.60896,-0.393896 2.73922,-0.393896 h 2.58806 v 20.150824 20.150826 l -3.175,-0.004 c -2.7381,-0.0035 -3.432,-0.09112 -5.04265,-0.63698 -1.44893,-0.491054 -2.54305,-0.66042 -4.88025,-0.755438 -3.50454,-0.142476 -5.64086,0.164405 -8.28096,1.189559 l -1.84253,0.715456 -1.6496,-0.930815 -1.6496,-0.930813 -0.13931,-6.463028 c -0.1488,-6.903717 -0.26789,-7.636652 -1.62265,-9.986934 -1.25922,-2.184539 -3.91851,-3.822177 -6.20667,-3.822177 -2.4108,0 -5.09599,1.744706 -6.415,4.168163 -1.18273,2.173067 -1.42139,3.861136 -1.42543,10.08247 -0.004,5.60202 -0.009,5.662853 -0.56398,5.994203 -0.30816,0.18411 -1.17515,0.702836 -1.92665,1.152719 l -1.36635,0.817973 -4.682441,0.03586 c -4.394934,0.03366 -4.746799,0.002 -5.730705,-0.517293 z"
         id="path851" />
      <path
         style="fill:#0b0b0b;stroke-width:1"
         d="m 112.33103,152.05988 c -3.11886,-0.79265 -5.75309,-2.16194 -8.73035,-4.53808 l -0.68517,-0.54683 -1.68051,0.53481 c -2.65604,0.84526 -4.902603,1.13842 -7.516669,0.98085 -7.742161,-0.46667 -14.278007,-5.20492 -17.099546,-12.39655 l -0.68335,-1.74175 -2.260084,-1.09873 c -4.389886,-2.13415 -7.309789,-4.99916 -9.356175,-9.18029 -1.334452,-2.72652 -1.773173,-4.49699 -1.921555,-7.75447 -0.102172,-2.24305 -0.02829,-3.14517 0.407898,-4.98039 0.678873,-2.85632 2.342237,-6.26859 4.072375,-8.3542 1.31161,-1.58108 3.94247,-3.729623 5.595708,-4.569833 l 0.809314,-0.41131 V 75.523031 c 0,-17.152478 0.07082,-22.550895 0.298823,-22.7789 0.426675,-0.426676 14.663913,-0.426676 15.090588,0 0.212793,0.212791 0.298824,1.754205 0.298824,5.353922 v 5.055098 h 2.739216 2.739215 v -5.055098 c 0,-3.599717 0.08603,-5.141131 0.298824,-5.353922 0.426675,-0.426676 14.663914,-0.426676 15.090584,0 0.21283,0.212823 0.29883,1.756017 0.29883,5.362077 v 5.063254 l 2.80147,-0.07041 2.80147,-0.07041 0.0673,-5.016365 c 0.0516,-3.843547 0.14595,-5.081623 0.40363,-5.29548 0.23568,-0.195593 2.5255,-0.259344 7.65229,-0.213046 l 7.31596,0.06607 0.12451,5.229411 0.12451,5.229412 2.80147,0.07041 2.80148,0.07041 V 58.10621 c 0,-3.60606 0.086,-5.149254 0.29882,-5.362077 0.42667,-0.426676 14.66391,-0.426676 15.09059,0 0.22818,0.228187 0.29882,5.8419 0.29882,23.748552 v 23.449726 l 1.63055,0.953579 c 7.77946,4.5496 11.33038,14.30701 8.35216,22.95053 -2.46229,7.14616 -8.37934,11.94821 -16.2082,13.15396 -0.74452,0.11467 -1.41635,0.43869 -2.00189,0.96551 -1.37237,1.23475 -3.06714,2.33216 -5.03437,3.25991 -1.73849,0.81987 -4.30125,1.61353 -5.21016,1.61353 -0.24664,0 -0.89143,0.62535 -1.47639,1.43186 -2.67883,3.69344 -6.05017,6.09884 -10.5566,7.53199 -2.52779,0.8039 -7.24856,0.92645 -9.88424,0.2566 z m 8.51463,-5.49418 c 3.41761,-0.99879 6.90298,-3.86589 8.46772,-6.96562 0.86425,-1.71207 1.27195,-1.99007 2.91849,-1.99007 3.03191,0 6.22562,-1.47016 9.06107,-4.17107 l 1.89532,-1.8054 h 1.60089 c 3.51447,0 6.58081,-1.37308 9.43511,-4.22495 5.53968,-5.53497 5.62875,-13.84839 0.2095,-19.55345 -3.10584,-3.26963 -6.2207,-4.45257 -11.42535,-4.33904 -2.97898,0.065 -3.18231,0.0366 -4.73138,-0.66104 -1.53595,-0.6917 -1.79034,-0.72856 -4.98039,-0.72157 -3.73102,0.008 -4.73311,0.27049 -7.57801,1.9836 -0.79587,0.47924 -1.59561,0.87136 -1.77721,0.87136 -0.18159,0 -1.0749,-0.56369 -1.98511,-1.25263 -3.14727,-2.38215 -5.52993,-3.22973 -9.07928,-3.22973 -3.5697,0 -6.46115,1.00422 -9.11429,3.16545 l -1.39641,1.13751 -1.92238,-0.43907 c -1.901329,-0.43425 -4.148555,-0.42806 -8.180043,0.0225 -1.214767,0.13577 -1.440665,0.0713 -2.988235,-0.85256 -2.449033,-1.46204 -3.793388,-1.85429 -6.779031,-1.97794 -4.477275,-0.18542 -7.504066,0.96769 -10.608254,4.04141 -2.799377,2.77191 -4.129251,5.97067 -4.144318,9.96836 -0.0148,3.92712 1.318039,7.1126 4.167951,9.96138 1.96785,1.96708 4.082938,3.16688 6.729648,3.81745 0.929217,0.22841 1.775644,0.58337 1.88095,0.78882 0.105308,0.20544 0.368599,1.15794 0.585094,2.11666 0.598997,2.65261 1.757002,4.72702 3.754015,6.72482 3.106756,3.10798 6.096807,4.2376 10.708444,4.04556 3.036714,-0.12645 4.429603,-0.54181 6.871659,-2.04914 0.78158,-0.48241 1.52024,-0.87712 1.64147,-0.87712 0.12123,0 0.83983,0.75821 1.5969,1.68491 3.73344,4.56998 9.5799,6.41295 15.16546,4.78058 z M 102.67048,97.748745 c 0.7515,-0.449883 1.61849,-0.968609 1.92665,-1.152719 0.55461,-0.33135 0.56033,-0.392183 0.56398,-5.994203 0.004,-6.221334 0.2427,-7.909403 1.42543,-10.08247 1.31901,-2.423457 4.0042,-4.168163 6.415,-4.168163 2.28816,0 4.94745,1.637638 6.20667,3.822177 1.35476,2.350282 1.47385,3.083217 1.62265,9.986927 l 0.13931,6.463027 1.6496,0.930813 1.6496,0.930816 1.84253,-0.715456 c 2.6401,-1.025154 4.77642,-1.332036 8.28096,-1.189559 2.3372,0.09502 3.43132,0.264384 4.88025,0.755438 1.61065,0.545863 2.30455,0.633516 5.04265,0.63698 l 3.175,0.004 V 77.825536 57.674719 h -2.58806 c -2.13026,0 -2.6148,0.06968 -2.73922,0.393896 -0.0831,0.216644 -0.15115,2.571475 -0.15115,5.232959 v 4.839064 l -7.78187,-0.0658 -7.78186,-0.0658 -0.12451,-5.104902 -0.12451,-5.104902 h -2.6147 -2.61471 l -0.12451,5.104902 -0.12451,5.104902 -7.7768,0.0658 -7.7768,0.0658 -0.0673,-5.170698 -0.0673,-5.170698 -2.67189,-0.07063 -2.671881,-0.07063 -0.06733,5.175531 -0.06733,5.175529 -7.702647,0.06592 c -5.996484,0.05132 -7.746928,-0.0038 -7.90256,-0.249019 -0.109952,-0.173216 -0.201629,-2.5281 -0.203725,-5.233075 l -0.0038,-4.918138 h -2.609962 c -2.500436,0 -2.615652,0.02351 -2.745558,0.560295 -0.07458,0.308161 -0.104728,8.908676 -0.067,19.112255 l 0.0686,18.551961 3.735294,0.149225 c 3.929883,0.156996 6.208676,0.686375 8.767876,2.036833 0.983906,0.519193 1.335771,0.550956 5.730705,0.517293 l 4.682438,-0.03586 z"
         id="path849" />
    </g>
  </g>
</svg>
